<svg xmlns="http://www.w3.org/2000/svg" viewBox="0 0 60.22 60.55"><defs><style>.cls-1{fill:#7fd2e9;}</style></defs><title>vericonnect</title><g id="Layer_2" data-name="Layer 2"><g id="Layer_1-2" data-name="Layer 1"><path class="cls-1" d="M28.16,45.07a1.14,1.14,0,0,0,0,1.6l1.15,1.15.18.14.19.1a1.14,1.14,0,0,0,.43.08l.22,0,.21-.06a1.11,1.11,0,0,0,.37-.25l1.15-1.15a1.14,1.14,0,0,0,0-1.6l-2-2Z"/><path class="cls-1" d="M11,49.46l5.46,5.46a19.25,19.25,0,0,0,2.27,1.95l.75.52a19.14,19.14,0,0,0,3.36,1.76,19.51,19.51,0,0,0,14.57,0,19.23,19.23,0,0,0,6.39-4.23l5.46-5.46L30.11,30.33Zm21.74-2.13-1.15,1.15A2,2,0,0,1,30.5,49a2.08,2.08,0,0,1-1.17-.11,2,2,0,0,1-.68-.45L27.5,47.33a2.07,2.07,0,0,1,0-2.92l2.61-2.61,2.61,2.61A2.07,2.07,0,0,1,32.72,47.33Z"/><path class="cls-1" d="M48.58,10.44l-4.8-4.8A19.1,19.1,0,0,0,35,.63,19.56,19.56,0,0,0,26.41.35c-.41.08-.82.18-1.22.28a19,19,0,0,0-8.75,5l-4.8,4.8L30.11,28.92Z"/><path class="cls-1" d="M10.93,11.15,5.64,16.44A19.27,19.27,0,0,0,0,30.28,19.27,19.27,0,0,0,5.64,44.11l4.64,4.64L29.4,29.62Z"/><path class="cls-1" d="M54.58,16.44l-5.29-5.29L30.81,29.62,49.94,48.75l4.64-4.64a19.27,19.27,0,0,0,5.63-13.83A19.27,19.27,0,0,0,54.58,16.44Z"/></g></g></svg>